<svg xmlns="http://www.w3.org/2000/svg" viewBox="0 0 680 420" role="img" aria-label="Combined XY ball-follow authority heatmap with command arrows">
  <rect width="680" height="420" fill="#0f1419"/>
  <text x="16" y="24" fill="#9aa4af" font-family="ui-sans-serif,system-ui,sans-serif" font-size="13">Combined FOV: color = Y drive, orange lift = |spin|, arrows = command (spin x, approach up / retreat down)</text>
  <g transform="translate(48,40)">
    <rect x="0" y="0" width="34" height="23" fill="#acb68f"/><rect x="34" y="0" width="34" height="23" fill="#acb68f"/><rect x="68" y="0" width="34" height="23" fill="#acb68f"/><rect x="102" y="0" width="34" height="23" fill="#acb68f"/><rect x="136" y="0" width="34" height="23" fill="#acb68f"/><rect x="170" y="0" width="34" height="23" fill="#9eb891"/><rect x="204" y="0" width="34" height="23" fill="#8eba93"/><rect x="238" y="0" width="34" height="23" fill="#5bc29b"/><rect x="272" y="0" width="34" height="23" fill="#5bc29b"/><rect x="306" y="0" width="34" height="23" fill="#8eba93"/><rect x="340" y="0" width="34" height="23" fill="#9eb891"/><rect x="374" y="0" width="34" height="23" fill="#acb68f"/><rect x="408" y="0" width="34" height="23" fill="#acb68f"/><rect x="442" y="0" width="34" height="23" fill="#acb68f"/><rect x="476" y="0" width="34" height="23" fill="#acb68f"/><rect x="510" y="0" width="34" height="23" fill="#acb68f"/><rect x="0" y="23" width="34" height="23" fill="#aaad88"/><rect x="34" y="23" width="34" height="23" fill="#aaad88"/><rect x="68" y="23" width="34" height="23" fill="#aaad88"/><rect x="102" y="23" width="34" height="23" fill="#aaad88"/><rect x="136" y="23" width="34" height="23" fill="#aaad88"/><rect x="170" y="23" width="34" height="23" fill="#9cae89"/><rect x="204" y="23" width="34" height="23" fill="#8ab08b"/><rect x="238" y="23" width="34" height="23" fill="#56b592"/><rect x="272" y="23" width="34" height="23" fill="#56b592"/><rect x="306" y="23" width="34" height="23" fill="#8ab08b"/><rect x="340" y="23" width="34" height="23" fill="#9cae89"/><rect x="374" y="23" width="34" height="23" fill="#aaad88"/><rect x="408" y="23" width="34" height="23" fill="#aaad88"/><rect x="442" y="23" width="34" height="23" fill="#aaad88"/><rect x="476" y="23" width="34" height="23" fill="#aaad88"/><rect x="510" y="23" width="34" height="23" fill="#aaad88"/><rect x="0" y="46" width="34" height="23" fill="#a8a37e"/><rect x="34" y="46" width="34" height="23" fill="#a8a37e"/><rect x="68" y="46" width="34" height="23" fill="#a8a37e"/><rect x="102" y="46" width="34" height="23" fill="#a8a37e"/><rect x="136" y="46" width="34" height="23" fill="#a7a37e"/><rect x="170" y="46" width="34" height="23" fill="#98a480"/><rect x="204" y="46" width="34" height="23" fill="#87a481"/><rect x="238" y="46" width="34" height="23" fill="#50a687"/><rect x="272" y="46" width="34" height="23" fill="#50a687"/><rect x="306" y="46" width="34" height="23" fill="#87a481"/><rect x="340" y="46" width="34" height="23" fill="#98a480"/><rect x="374" y="46" width="34" height="23" fill="#a7a37e"/><rect x="408" y="46" width="34" height="23" fill="#a8a37e"/><rect x="442" y="46" width="34" height="23" fill="#a8a37e"/><rect x="476" y="46" width="34" height="23" fill="#a8a37e"/><rect x="510" y="46" width="34" height="23" fill="#a8a37e"/><rect x="0" y="69" width="34" height="23" fill="#a49873"/><rect x="34" y="69" width="34" height="23" fill="#a49873"/><rect x="68" y="69" width="34" height="23" fill="#a49873"/><rect x="102" y="69" width="34" height="23" fill="#a49873"/><rect x="136" y="69" width="34" height="23" fill="#a49873"/><rect x="170" y="69" width="34" height="23" fill="#949874"/><rect x="204" y="69" width="34" height="23" fill="#819776"/><rect x="238" y="69" width="34" height="23" fill="#48957a"/><rect x="272" y="69" width="34" height="23" fill="#48957a"/><rect x="306" y="69" width="34" height="23" fill="#819776"/><rect x="340" y="69" width="34" height="23" fill="#949874"/><rect x="374" y="69" width="34" height="23" fill="#a49873"/><rect x="408" y="69" width="34" height="23" fill="#a49873"/><rect x="442" y="69" width="34" height="23" fill="#a49873"/><rect x="476" y="69" width="34" height="23" fill="#a49873"/><rect x="510" y="69" width="34" height="23" fill="#a49873"/><rect x="0" y="92" width="34" height="23" fill="#a08966"/><rect x="34" y="92" width="34" height="23" fill="#a08966"/><rect x="68" y="92" width="34" height="23" fill="#a08966"/><rect x="102" y="92" width="34" height="23" fill="#a08966"/><rect x="136" y="92" width="34" height="23" fill="#a08966"/><rect x="170" y="92" width="34" height="23" fill="#8f8766"/><rect x="204" y="92" width="34" height="23" fill="#7b8567"/><rect x="238" y="92" width="34" height="23" fill="#3f7e6a"/><rect x="272" y="92" width="34" height="23" fill="#3f7e6a"/><rect x="306" y="92" width="34" height="23" fill="#7b8567"/><rect x="340" y="92" width="34" height="23" fill="#8f8766"/><rect x="374" y="92" width="34" height="23" fill="#a08966"/><rect x="408" y="92" width="34" height="23" fill="#a08966"/><rect x="442" y="92" width="34" height="23" fill="#a08966"/><rect x="476" y="92" width="34" height="23" fill="#a08966"/><rect x="510" y="92" width="34" height="23" fill="#a08966"/><rect x="0" y="115" width="34" height="23" fill="#997350"/><rect x="34" y="115" width="34" height="23" fill="#997350"/><rect x="68" y="115" width="34" height="23" fill="#997350"/><rect x="102" y="115" width="34" height="23" fill="#997350"/><rect x="136" y="115" width="34" height="23" fill="#997350"/><rect x="170" y="115" width="34" height="23" fill="#876f50"/><rect x="204" y="115" width="34" height="23" fill="#726a50"/><rect x="238" y="115" width="34" height="23" fill="#305b50"/><rect x="272" y="115" width="34" height="23" fill="#305b50"/><rect x="306" y="115" width="34" height="23" fill="#726a50"/><rect x="340" y="115" width="34" height="23" fill="#876f50"/><rect x="374" y="115" width="34" height="23" fill="#997350"/><rect x="408" y="115" width="34" height="23" fill="#997350"/><rect x="442" y="115" width="34" height="23" fill="#997350"/><rect x="476" y="115" width="34" height="23" fill="#997350"/><rect x="510" y="115" width="34" height="23" fill="#997350"/><rect x="0" y="138" width="34" height="23" fill="#b15b38"/><rect x="34" y="138" width="34" height="23" fill="#b15b38"/><rect x="68" y="138" width="34" height="23" fill="#b15b38"/><rect x="102" y="138" width="34" height="23" fill="#b15b38"/><rect x="136" y="138" width="34" height="23" fill="#b15b38"/><rect x="170" y="138" width="34" height="23" fill="#a45537"/><rect x="204" y="138" width="34" height="23" fill="#954d36"/><rect x="238" y="138" width="34" height="23" fill="#663734"/><rect x="272" y="138" width="34" height="23" fill="#663734"/><rect x="306" y="138" width="34" height="23" fill="#954d36"/><rect x="340" y="138" width="34" height="23" fill="#a45537"/><rect x="374" y="138" width="34" height="23" fill="#b15b38"/><rect x="408" y="138" width="34" height="23" fill="#b15b38"/><rect x="442" y="138" width="34" height="23" fill="#b15b38"/><rect x="476" y="138" width="34" height="23" fill="#b15b38"/><rect x="510" y="138" width="34" height="23" fill="#b15b38"/><rect x="0" y="161" width="34" height="23" fill="#c56540"/><rect x="34" y="161" width="34" height="23" fill="#c56540"/><rect x="68" y="161" width="34" height="23" fill="#c56540"/><rect x="102" y="161" width="34" height="23" fill="#c56540"/><rect x="136" y="161" width="34" height="23" fill="#c56540"/><rect x="170" y="161" width="34" height="23" fill="#bc6040"/><rect x="204" y="161" width="34" height="23" fill="#b2593f"/><rect x="238" y="161" width="34" height="23" fill="#92463e"/><rect x="272" y="161" width="34" height="23" fill="#92463e"/><rect x="306" y="161" width="34" height="23" fill="#b2593f"/><rect x="340" y="161" width="34" height="23" fill="#bc6040"/><rect x="374" y="161" width="34" height="23" fill="#c56540"/><rect x="408" y="161" width="34" height="23" fill="#c56540"/><rect x="442" y="161" width="34" height="23" fill="#c56540"/><rect x="476" y="161" width="34" height="23" fill="#c56540"/><rect x="510" y="161" width="34" height="23" fill="#c56540"/><rect x="0" y="184" width="34" height="23" fill="#d26c46"/><rect x="34" y="184" width="34" height="23" fill="#d26c46"/><rect x="68" y="184" width="34" height="23" fill="#d26c46"/><rect x="102" y="184" width="34" height="23" fill="#d26c46"/><rect x="136" y="184" width="34" height="23" fill="#d26b46"/><rect x="170" y="184" width="34" height="23" fill="#cc6746"/><rect x="204" y="184" width="34" height="23" fill="#c46146"/><rect x="238" y="184" width="34" height="23" fill="#ae5045"/><rect x="272" y="184" width="34" height="23" fill="#ae5045"/><rect x="306" y="184" width="34" height="23" fill="#c46146"/><rect x="340" y="184" width="34" height="23" fill="#cc6746"/><rect x="374" y="184" width="34" height="23" fill="#d26b46"/><rect x="408" y="184" width="34" height="23" fill="#d26c46"/><rect x="442" y="184" width="34" height="23" fill="#d26c46"/><rect x="476" y="184" width="34" height="23" fill="#d26c46"/><rect x="510" y="184" width="34" height="23" fill="#d26c46"/><rect x="0" y="207" width="34" height="23" fill="#dc704a"/><rect x="34" y="207" width="34" height="23" fill="#dc704a"/><rect x="68" y="207" width="34" height="23" fill="#dc704a"/><rect x="102" y="207" width="34" height="23" fill="#dc704a"/><rect x="136" y="207" width="34" height="23" fill="#dc704a"/><rect x="170" y="207" width="34" height="23" fill="#d86c4a"/><rect x="204" y="207" width="34" height="23" fill="#d3664a"/><rect x="238" y="207" width="34" height="23" fill="#c4574a"/><rect x="272" y="207" width="34" height="23" fill="#c4574a"/><rect x="306" y="207" width="34" height="23" fill="#d3664a"/><rect x="340" y="207" width="34" height="23" fill="#d86c4a"/><rect x="374" y="207" width="34" height="23" fill="#dc704a"/><rect x="408" y="207" width="34" height="23" fill="#dc704a"/><rect x="442" y="207" width="34" height="23" fill="#dc704a"/><rect x="476" y="207" width="34" height="23" fill="#dc704a"/><rect x="510" y="207" width="34" height="23" fill="#dc704a"/><rect x="0" y="230" width="34" height="23" fill="#e4754e"/><rect x="34" y="230" width="34" height="23" fill="#e4754e"/><rect x="68" y="230" width="34" height="23" fill="#e4754e"/><rect x="102" y="230" width="34" height="23" fill="#e4754e"/><rect x="136" y="230" width="34" height="23" fill="#e4754e"/><rect x="170" y="230" width="34" height="23" fill="#e1714e"/><rect x="204" y="230" width="34" height="23" fill="#de6c4e"/><rect x="238" y="230" width="34" height="23" fill="#d65e4e"/><rect x="272" y="230" width="34" height="23" fill="#d65e4e"/><rect x="306" y="230" width="34" height="23" fill="#de6c4e"/><rect x="340" y="230" width="34" height="23" fill="#e1714e"/><rect x="374" y="230" width="34" height="23" fill="#e4754e"/><rect x="408" y="230" width="34" height="23" fill="#e4754e"/><rect x="442" y="230" width="34" height="23" fill="#e4754e"/><rect x="476" y="230" width="34" height="23" fill="#e4754e"/><rect x="510" y="230" width="34" height="23" fill="#e4754e"/><rect x="0" y="253" width="34" height="23" fill="#e77650"/><rect x="34" y="253" width="34" height="23" fill="#e77650"/><rect x="68" y="253" width="34" height="23" fill="#e77650"/><rect x="102" y="253" width="34" height="23" fill="#e77650"/><rect x="136" y="253" width="34" height="23" fill="#e67650"/><rect x="170" y="253" width="34" height="23" fill="#e57250"/><rect x="204" y="253" width="34" height="23" fill="#e26e50"/><rect x="238" y="253" width="34" height="23" fill="#dc6050"/><rect x="272" y="253" width="34" height="23" fill="#dc6050"/><rect x="306" y="253" width="34" height="23" fill="#e26e50"/><rect x="340" y="253" width="34" height="23" fill="#e57250"/><rect x="374" y="253" width="34" height="23" fill="#e67650"/><rect x="408" y="253" width="34" height="23" fill="#e77650"/><rect x="442" y="253" width="34" height="23" fill="#e77650"/><rect x="476" y="253" width="34" height="23" fill="#e77650"/><rect x="510" y="253" width="34" height="23" fill="#e77650"/>
    <line x1="17.0" y1="11.5" x2="5.0" y2="1.8" stroke="#e8eef4" stroke-width="1.4" stroke-linecap="round"/><circle cx="5.0" cy="1.8" r="1.4" fill="#e8eef4"/><line x1="51.0" y1="11.5" x2="39.0" y2="1.8" stroke="#e8eef4" stroke-width="1.4" stroke-linecap="round"/><circle cx="39.0" cy="1.8" r="1.4" fill="#e8eef4"/><line x1="85.0" y1="11.5" x2="73.0" y2="1.8" stroke="#e8eef4" stroke-width="1.4" stroke-linecap="round"/><circle cx="73.0" cy="1.8" r="1.4" fill="#e8eef4"/><line x1="119.0" y1="11.5" x2="107.0" y2="1.8" stroke="#e8eef4" stroke-width="1.4" stroke-linecap="round"/><circle cx="107.0" cy="1.8" r="1.4" fill="#e8eef4"/><line x1="153.0" y1="11.5" x2="141.0" y2="1.8" stroke="#e8eef4" stroke-width="1.4" stroke-linecap="round"/><circle cx="141.0" cy="1.8" r="1.4" fill="#e8eef4"/><line x1="187.0" y1="11.5" x2="177.1" y2="1.8" stroke="#e8eef4" stroke-width="1.4" stroke-linecap="round"/><circle cx="177.1" cy="1.8" r="1.4" fill="#e8eef4"/><line x1="221.0" y1="11.5" x2="213.5" y2="1.8" stroke="#e8eef4" stroke-width="1.4" stroke-linecap="round"/><circle cx="213.5" cy="1.8" r="1.4" fill="#e8eef4"/><line x1="255.0" y1="11.5" x2="255.0" y2="1.8" stroke="#e8eef4" stroke-width="1.4" stroke-linecap="round"/><circle cx="255.0" cy="1.8" r="1.4" fill="#e8eef4"/><line x1="289.0" y1="11.5" x2="289.0" y2="1.8" stroke="#e8eef4" stroke-width="1.4" stroke-linecap="round"/><circle cx="289.0" cy="1.8" r="1.4" fill="#e8eef4"/><line x1="323.0" y1="11.5" x2="330.5" y2="1.8" stroke="#e8eef4" stroke-width="1.4" stroke-linecap="round"/><circle cx="330.5" cy="1.8" r="1.4" fill="#e8eef4"/><line x1="357.0" y1="11.5" x2="366.9" y2="1.8" stroke="#e8eef4" stroke-width="1.4" stroke-linecap="round"/><circle cx="366.9" cy="1.8" r="1.4" fill="#e8eef4"/><line x1="391.0" y1="11.5" x2="403.0" y2="1.8" stroke="#e8eef4" stroke-width="1.4" stroke-linecap="round"/><circle cx="403.0" cy="1.8" r="1.4" fill="#e8eef4"/><line x1="425.0" y1="11.5" x2="437.0" y2="1.8" stroke="#e8eef4" stroke-width="1.4" stroke-linecap="round"/><circle cx="437.0" cy="1.8" r="1.4" fill="#e8eef4"/><line x1="459.0" y1="11.5" x2="471.0" y2="1.8" stroke="#e8eef4" stroke-width="1.4" stroke-linecap="round"/><circle cx="471.0" cy="1.8" r="1.4" fill="#e8eef4"/><line x1="493.0" y1="11.5" x2="505.0" y2="1.8" stroke="#e8eef4" stroke-width="1.4" stroke-linecap="round"/><circle cx="505.0" cy="1.8" r="1.4" fill="#e8eef4"/><line x1="527.0" y1="11.5" x2="539.0" y2="1.8" stroke="#e8eef4" stroke-width="1.4" stroke-linecap="round"/><circle cx="539.0" cy="1.8" r="1.4" fill="#e8eef4"/><line x1="17.0" y1="34.5" x2="5.0" y2="25.6" stroke="#e8eef4" stroke-width="1.4" stroke-linecap="round"/><circle cx="5.0" cy="25.6" r="1.4" fill="#e8eef4"/><line x1="51.0" y1="34.5" x2="39.0" y2="25.6" stroke="#e8eef4" stroke-width="1.4" stroke-linecap="round"/><circle cx="39.0" cy="25.6" r="1.4" fill="#e8eef4"/><line x1="85.0" y1="34.5" x2="73.0" y2="25.6" stroke="#e8eef4" stroke-width="1.4" stroke-linecap="round"/><circle cx="73.0" cy="25.6" r="1.4" fill="#e8eef4"/><line x1="119.0" y1="34.5" x2="107.0" y2="25.6" stroke="#e8eef4" stroke-width="1.4" stroke-linecap="round"/><circle cx="107.0" cy="25.6" r="1.4" fill="#e8eef4"/><line x1="153.0" y1="34.5" x2="141.0" y2="25.6" stroke="#e8eef4" stroke-width="1.4" stroke-linecap="round"/><circle cx="141.0" cy="25.6" r="1.4" fill="#e8eef4"/><line x1="187.0" y1="34.5" x2="177.1" y2="25.6" stroke="#e8eef4" stroke-width="1.4" stroke-linecap="round"/><circle cx="177.1" cy="25.6" r="1.4" fill="#e8eef4"/><line x1="221.0" y1="34.5" x2="213.5" y2="25.6" stroke="#e8eef4" stroke-width="1.4" stroke-linecap="round"/><circle cx="213.5" cy="25.6" r="1.4" fill="#e8eef4"/><line x1="255.0" y1="34.5" x2="255.0" y2="25.6" stroke="#e8eef4" stroke-width="1.4" stroke-linecap="round"/><circle cx="255.0" cy="25.6" r="1.4" fill="#e8eef4"/><line x1="289.0" y1="34.5" x2="289.0" y2="25.6" stroke="#e8eef4" stroke-width="1.4" stroke-linecap="round"/><circle cx="289.0" cy="25.6" r="1.4" fill="#e8eef4"/><line x1="323.0" y1="34.5" x2="330.5" y2="25.6" stroke="#e8eef4" stroke-width="1.4" stroke-linecap="round"/><circle cx="330.5" cy="25.6" r="1.4" fill="#e8eef4"/><line x1="357.0" y1="34.5" x2="366.9" y2="25.6" stroke="#e8eef4" stroke-width="1.4" stroke-linecap="round"/><circle cx="366.9" cy="25.6" r="1.4" fill="#e8eef4"/><line x1="391.0" y1="34.5" x2="403.0" y2="25.6" stroke="#e8eef4" stroke-width="1.4" stroke-linecap="round"/><circle cx="403.0" cy="25.6" r="1.4" fill="#e8eef4"/><line x1="425.0" y1="34.5" x2="437.0" y2="25.6" stroke="#e8eef4" stroke-width="1.4" stroke-linecap="round"/><circle cx="437.0" cy="25.6" r="1.4" fill="#e8eef4"/><line x1="459.0" y1="34.5" x2="471.0" y2="25.6" stroke="#e8eef4" stroke-width="1.4" stroke-linecap="round"/><circle cx="471.0" cy="25.6" r="1.4" fill="#e8eef4"/><line x1="493.0" y1="34.5" x2="505.0" y2="25.6" stroke="#e8eef4" stroke-width="1.4" stroke-linecap="round"/><circle cx="505.0" cy="25.6" r="1.4" fill="#e8eef4"/><line x1="527.0" y1="34.5" x2="539.0" y2="25.6" stroke="#e8eef4" stroke-width="1.4" stroke-linecap="round"/><circle cx="539.0" cy="25.6" r="1.4" fill="#e8eef4"/><line x1="17.0" y1="57.5" x2="5.0" y2="49.4" stroke="#e8eef4" stroke-width="1.4" stroke-linecap="round"/><circle cx="5.0" cy="49.4" r="1.4" fill="#e8eef4"/><line x1="51.0" y1="57.5" x2="39.0" y2="49.4" stroke="#e8eef4" stroke-width="1.4" stroke-linecap="round"/><circle cx="39.0" cy="49.4" r="1.4" fill="#e8eef4"/><line x1="85.0" y1="57.5" x2="73.0" y2="49.4" stroke="#e8eef4" stroke-width="1.4" stroke-linecap="round"/><circle cx="73.0" cy="49.4" r="1.4" fill="#e8eef4"/><line x1="119.0" y1="57.5" x2="107.0" y2="49.4" stroke="#e8eef4" stroke-width="1.4" stroke-linecap="round"/><circle cx="107.0" cy="49.4" r="1.4" fill="#e8eef4"/><line x1="153.0" y1="57.5" x2="141.0" y2="49.4" stroke="#e8eef4" stroke-width="1.4" stroke-linecap="round"/><circle cx="141.0" cy="49.4" r="1.4" fill="#e8eef4"/><line x1="187.0" y1="57.5" x2="177.1" y2="49.4" stroke="#e8eef4" stroke-width="1.4" stroke-linecap="round"/><circle cx="177.1" cy="49.4" r="1.4" fill="#e8eef4"/><line x1="221.0" y1="57.5" x2="213.5" y2="49.4" stroke="#e8eef4" stroke-width="1.4" stroke-linecap="round"/><circle cx="213.5" cy="49.4" r="1.4" fill="#e8eef4"/><line x1="255.0" y1="57.5" x2="255.0" y2="49.4" stroke="#e8eef4" stroke-width="1.4" stroke-linecap="round"/><circle cx="255.0" cy="49.4" r="1.4" fill="#e8eef4"/><line x1="289.0" y1="57.5" x2="289.0" y2="49.4" stroke="#e8eef4" stroke-width="1.4" stroke-linecap="round"/><circle cx="289.0" cy="49.4" r="1.4" fill="#e8eef4"/><line x1="323.0" y1="57.5" x2="330.5" y2="49.4" stroke="#e8eef4" stroke-width="1.4" stroke-linecap="round"/><circle cx="330.5" cy="49.4" r="1.4" fill="#e8eef4"/><line x1="357.0" y1="57.5" x2="366.9" y2="49.4" stroke="#e8eef4" stroke-width="1.4" stroke-linecap="round"/><circle cx="366.9" cy="49.4" r="1.4" fill="#e8eef4"/><line x1="391.0" y1="57.5" x2="403.0" y2="49.4" stroke="#e8eef4" stroke-width="1.4" stroke-linecap="round"/><circle cx="403.0" cy="49.4" r="1.4" fill="#e8eef4"/><line x1="425.0" y1="57.5" x2="437.0" y2="49.4" stroke="#e8eef4" stroke-width="1.4" stroke-linecap="round"/><circle cx="437.0" cy="49.4" r="1.4" fill="#e8eef4"/><line x1="459.0" y1="57.5" x2="471.0" y2="49.4" stroke="#e8eef4" stroke-width="1.4" stroke-linecap="round"/><circle cx="471.0" cy="49.4" r="1.4" fill="#e8eef4"/><line x1="493.0" y1="57.5" x2="505.0" y2="49.4" stroke="#e8eef4" stroke-width="1.4" stroke-linecap="round"/><circle cx="505.0" cy="49.4" r="1.4" fill="#e8eef4"/><line x1="527.0" y1="57.5" x2="539.0" y2="49.4" stroke="#e8eef4" stroke-width="1.4" stroke-linecap="round"/><circle cx="539.0" cy="49.4" r="1.4" fill="#e8eef4"/><line x1="17.0" y1="80.5" x2="5.0" y2="73.5" stroke="#e8eef4" stroke-width="1.4" stroke-linecap="round"/><circle cx="5.0" cy="73.5" r="1.4" fill="#e8eef4"/><line x1="51.0" y1="80.5" x2="39.0" y2="73.5" stroke="#e8eef4" stroke-width="1.4" stroke-linecap="round"/><circle cx="39.0" cy="73.5" r="1.4" fill="#e8eef4"/><line x1="85.0" y1="80.5" x2="73.0" y2="73.5" stroke="#e8eef4" stroke-width="1.4" stroke-linecap="round"/><circle cx="73.0" cy="73.5" r="1.4" fill="#e8eef4"/><line x1="119.0" y1="80.5" x2="107.0" y2="73.5" stroke="#e8eef4" stroke-width="1.4" stroke-linecap="round"/><circle cx="107.0" cy="73.5" r="1.4" fill="#e8eef4"/><line x1="153.0" y1="80.5" x2="141.0" y2="73.5" stroke="#e8eef4" stroke-width="1.4" stroke-linecap="round"/><circle cx="141.0" cy="73.5" r="1.4" fill="#e8eef4"/><line x1="187.0" y1="80.5" x2="177.1" y2="73.5" stroke="#e8eef4" stroke-width="1.4" stroke-linecap="round"/><circle cx="177.1" cy="73.5" r="1.4" fill="#e8eef4"/><line x1="221.0" y1="80.5" x2="213.5" y2="73.5" stroke="#e8eef4" stroke-width="1.4" stroke-linecap="round"/><circle cx="213.5" cy="73.5" r="1.4" fill="#e8eef4"/><line x1="255.0" y1="80.5" x2="255.0" y2="73.5" stroke="#e8eef4" stroke-width="1.4" stroke-linecap="round"/><circle cx="255.0" cy="73.5" r="1.4" fill="#e8eef4"/><line x1="289.0" y1="80.5" x2="289.0" y2="73.5" stroke="#e8eef4" stroke-width="1.4" stroke-linecap="round"/><circle cx="289.0" cy="73.5" r="1.4" fill="#e8eef4"/><line x1="323.0" y1="80.5" x2="330.5" y2="73.5" stroke="#e8eef4" stroke-width="1.4" stroke-linecap="round"/><circle cx="330.5" cy="73.5" r="1.4" fill="#e8eef4"/><line x1="357.0" y1="80.5" x2="366.9" y2="73.5" stroke="#e8eef4" stroke-width="1.4" stroke-linecap="round"/><circle cx="366.9" cy="73.5" r="1.4" fill="#e8eef4"/><line x1="391.0" y1="80.5" x2="403.0" y2="73.5" stroke="#e8eef4" stroke-width="1.4" stroke-linecap="round"/><circle cx="403.0" cy="73.5" r="1.4" fill="#e8eef4"/><line x1="425.0" y1="80.5" x2="437.0" y2="73.5" stroke="#e8eef4" stroke-width="1.4" stroke-linecap="round"/><circle cx="437.0" cy="73.5" r="1.4" fill="#e8eef4"/><line x1="459.0" y1="80.5" x2="471.0" y2="73.5" stroke="#e8eef4" stroke-width="1.4" stroke-linecap="round"/><circle cx="471.0" cy="73.5" r="1.4" fill="#e8eef4"/><line x1="493.0" y1="80.5" x2="505.0" y2="73.5" stroke="#e8eef4" stroke-width="1.4" stroke-linecap="round"/><circle cx="505.0" cy="73.5" r="1.4" fill="#e8eef4"/><line x1="527.0" y1="80.5" x2="539.0" y2="73.5" stroke="#e8eef4" stroke-width="1.4" stroke-linecap="round"/><circle cx="539.0" cy="73.5" r="1.4" fill="#e8eef4"/><line x1="17.0" y1="103.5" x2="5.0" y2="97.8" stroke="#e8eef4" stroke-width="1.4" stroke-linecap="round"/><circle cx="5.0" cy="97.8" r="1.4" fill="#e8eef4"/><line x1="51.0" y1="103.5" x2="39.0" y2="97.8" stroke="#e8eef4" stroke-width="1.4" stroke-linecap="round"/><circle cx="39.0" cy="97.8" r="1.4" fill="#e8eef4"/><line x1="85.0" y1="103.5" x2="73.0" y2="97.8" stroke="#e8eef4" stroke-width="1.4" stroke-linecap="round"/><circle cx="73.0" cy="97.8" r="1.4" fill="#e8eef4"/><line x1="119.0" y1="103.5" x2="107.0" y2="97.8" stroke="#e8eef4" stroke-width="1.4" stroke-linecap="round"/><circle cx="107.0" cy="97.8" r="1.4" fill="#e8eef4"/><line x1="153.0" y1="103.5" x2="141.0" y2="97.8" stroke="#e8eef4" stroke-width="1.4" stroke-linecap="round"/><circle cx="141.0" cy="97.8" r="1.4" fill="#e8eef4"/><line x1="187.0" y1="103.5" x2="177.1" y2="97.8" stroke="#e8eef4" stroke-width="1.4" stroke-linecap="round"/><circle cx="177.1" cy="97.8" r="1.4" fill="#e8eef4"/><line x1="221.0" y1="103.5" x2="213.5" y2="97.8" stroke="#e8eef4" stroke-width="1.4" stroke-linecap="round"/><circle cx="213.5" cy="97.8" r="1.4" fill="#e8eef4"/><line x1="255.0" y1="103.5" x2="255.0" y2="97.8" stroke="#e8eef4" stroke-width="1.4" stroke-linecap="round"/><circle cx="255.0" cy="97.8" r="1.4" fill="#e8eef4"/><line x1="289.0" y1="103.5" x2="289.0" y2="97.8" stroke="#e8eef4" stroke-width="1.4" stroke-linecap="round"/><circle cx="289.0" cy="97.8" r="1.4" fill="#e8eef4"/><line x1="323.0" y1="103.5" x2="330.5" y2="97.8" stroke="#e8eef4" stroke-width="1.4" stroke-linecap="round"/><circle cx="330.5" cy="97.8" r="1.4" fill="#e8eef4"/><line x1="357.0" y1="103.5" x2="366.9" y2="97.8" stroke="#e8eef4" stroke-width="1.4" stroke-linecap="round"/><circle cx="366.9" cy="97.8" r="1.4" fill="#e8eef4"/><line x1="391.0" y1="103.5" x2="403.0" y2="97.8" stroke="#e8eef4" stroke-width="1.4" stroke-linecap="round"/><circle cx="403.0" cy="97.8" r="1.4" fill="#e8eef4"/><line x1="425.0" y1="103.5" x2="437.0" y2="97.8" stroke="#e8eef4" stroke-width="1.4" stroke-linecap="round"/><circle cx="437.0" cy="97.8" r="1.4" fill="#e8eef4"/><line x1="459.0" y1="103.5" x2="471.0" y2="97.8" stroke="#e8eef4" stroke-width="1.4" stroke-linecap="round"/><circle cx="471.0" cy="97.8" r="1.4" fill="#e8eef4"/><line x1="493.0" y1="103.5" x2="505.0" y2="97.8" stroke="#e8eef4" stroke-width="1.4" stroke-linecap="round"/><circle cx="505.0" cy="97.8" r="1.4" fill="#e8eef4"/><line x1="527.0" y1="103.5" x2="539.0" y2="97.8" stroke="#e8eef4" stroke-width="1.4" stroke-linecap="round"/><circle cx="539.0" cy="97.8" r="1.4" fill="#e8eef4"/><line x1="17.0" y1="126.5" x2="5.0" y2="122.8" stroke="#e8eef4" stroke-width="1.4" stroke-linecap="round"/><circle cx="5.0" cy="122.8" r="1.4" fill="#e8eef4"/><line x1="51.0" y1="126.5" x2="39.0" y2="122.8" stroke="#e8eef4" stroke-width="1.4" stroke-linecap="round"/><circle cx="39.0" cy="122.8" r="1.4" fill="#e8eef4"/><line x1="85.0" y1="126.5" x2="73.0" y2="122.8" stroke="#e8eef4" stroke-width="1.4" stroke-linecap="round"/><circle cx="73.0" cy="122.8" r="1.4" fill="#e8eef4"/><line x1="119.0" y1="126.5" x2="107.0" y2="122.8" stroke="#e8eef4" stroke-width="1.4" stroke-linecap="round"/><circle cx="107.0" cy="122.8" r="1.4" fill="#e8eef4"/><line x1="153.0" y1="126.5" x2="141.0" y2="122.8" stroke="#e8eef4" stroke-width="1.4" stroke-linecap="round"/><circle cx="141.0" cy="122.8" r="1.4" fill="#e8eef4"/><line x1="187.0" y1="126.5" x2="177.1" y2="122.8" stroke="#e8eef4" stroke-width="1.4" stroke-linecap="round"/><circle cx="177.1" cy="122.8" r="1.4" fill="#e8eef4"/><line x1="221.0" y1="126.5" x2="213.5" y2="122.8" stroke="#e8eef4" stroke-width="1.4" stroke-linecap="round"/><circle cx="213.5" cy="122.8" r="1.4" fill="#e8eef4"/><line x1="255.0" y1="126.5" x2="255.0" y2="122.8" stroke="#e8eef4" stroke-width="1.4" stroke-linecap="round"/><circle cx="255.0" cy="122.8" r="1.4" fill="#e8eef4"/><line x1="289.0" y1="126.5" x2="289.0" y2="122.8" stroke="#e8eef4" stroke-width="1.4" stroke-linecap="round"/><circle cx="289.0" cy="122.8" r="1.4" fill="#e8eef4"/><line x1="323.0" y1="126.5" x2="330.5" y2="122.8" stroke="#e8eef4" stroke-width="1.4" stroke-linecap="round"/><circle cx="330.5" cy="122.8" r="1.4" fill="#e8eef4"/><line x1="357.0" y1="126.5" x2="366.9" y2="122.8" stroke="#e8eef4" stroke-width="1.4" stroke-linecap="round"/><circle cx="366.9" cy="122.8" r="1.4" fill="#e8eef4"/><line x1="391.0" y1="126.5" x2="403.0" y2="122.8" stroke="#e8eef4" stroke-width="1.4" stroke-linecap="round"/><circle cx="403.0" cy="122.8" r="1.4" fill="#e8eef4"/><line x1="425.0" y1="126.5" x2="437.0" y2="122.8" stroke="#e8eef4" stroke-width="1.4" stroke-linecap="round"/><circle cx="437.0" cy="122.8" r="1.4" fill="#e8eef4"/><line x1="459.0" y1="126.5" x2="471.0" y2="122.8" stroke="#e8eef4" stroke-width="1.4" stroke-linecap="round"/><circle cx="471.0" cy="122.8" r="1.4" fill="#e8eef4"/><line x1="493.0" y1="126.5" x2="505.0" y2="122.8" stroke="#e8eef4" stroke-width="1.4" stroke-linecap="round"/><circle cx="505.0" cy="122.8" r="1.4" fill="#e8eef4"/><line x1="527.0" y1="126.5" x2="539.0" y2="122.8" stroke="#e8eef4" stroke-width="1.4" stroke-linecap="round"/><circle cx="539.0" cy="122.8" r="1.4" fill="#e8eef4"/><line x1="17.0" y1="149.5" x2="5.0" y2="153.5" stroke="#e8eef4" stroke-width="1.4" stroke-linecap="round"/><circle cx="5.0" cy="153.5" r="1.4" fill="#e8eef4"/><line x1="51.0" y1="149.5" x2="39.0" y2="153.5" stroke="#e8eef4" stroke-width="1.4" stroke-linecap="round"/><circle cx="39.0" cy="153.5" r="1.4" fill="#e8eef4"/><line x1="85.0" y1="149.5" x2="73.0" y2="153.5" stroke="#e8eef4" stroke-width="1.4" stroke-linecap="round"/><circle cx="73.0" cy="153.5" r="1.4" fill="#e8eef4"/><line x1="119.0" y1="149.5" x2="107.0" y2="153.5" stroke="#e8eef4" stroke-width="1.4" stroke-linecap="round"/><circle cx="107.0" cy="153.5" r="1.4" fill="#e8eef4"/><line x1="153.0" y1="149.5" x2="141.0" y2="153.5" stroke="#e8eef4" stroke-width="1.4" stroke-linecap="round"/><circle cx="141.0" cy="153.5" r="1.4" fill="#e8eef4"/><line x1="187.0" y1="149.5" x2="177.1" y2="153.5" stroke="#e8eef4" stroke-width="1.4" stroke-linecap="round"/><circle cx="177.1" cy="153.5" r="1.4" fill="#e8eef4"/><line x1="221.0" y1="149.5" x2="213.5" y2="153.5" stroke="#e8eef4" stroke-width="1.4" stroke-linecap="round"/><circle cx="213.5" cy="153.5" r="1.4" fill="#e8eef4"/><line x1="255.0" y1="149.5" x2="255.0" y2="153.5" stroke="#e8eef4" stroke-width="1.4" stroke-linecap="round"/><circle cx="255.0" cy="153.5" r="1.4" fill="#e8eef4"/><line x1="289.0" y1="149.5" x2="289.0" y2="153.5" stroke="#e8eef4" stroke-width="1.4" stroke-linecap="round"/><circle cx="289.0" cy="153.5" r="1.4" fill="#e8eef4"/><line x1="323.0" y1="149.5" x2="330.5" y2="153.5" stroke="#e8eef4" stroke-width="1.4" stroke-linecap="round"/><circle cx="330.5" cy="153.5" r="1.4" fill="#e8eef4"/><line x1="357.0" y1="149.5" x2="366.9" y2="153.5" stroke="#e8eef4" stroke-width="1.4" stroke-linecap="round"/><circle cx="366.9" cy="153.5" r="1.4" fill="#e8eef4"/><line x1="391.0" y1="149.5" x2="403.0" y2="153.5" stroke="#e8eef4" stroke-width="1.4" stroke-linecap="round"/><circle cx="403.0" cy="153.5" r="1.4" fill="#e8eef4"/><line x1="425.0" y1="149.5" x2="437.0" y2="153.5" stroke="#e8eef4" stroke-width="1.4" stroke-linecap="round"/><circle cx="437.0" cy="153.5" r="1.4" fill="#e8eef4"/><line x1="459.0" y1="149.5" x2="471.0" y2="153.5" stroke="#e8eef4" stroke-width="1.4" stroke-linecap="round"/><circle cx="471.0" cy="153.5" r="1.4" fill="#e8eef4"/><line x1="493.0" y1="149.5" x2="505.0" y2="153.5" stroke="#e8eef4" stroke-width="1.4" stroke-linecap="round"/><circle cx="505.0" cy="153.5" r="1.4" fill="#e8eef4"/><line x1="527.0" y1="149.5" x2="539.0" y2="153.5" stroke="#e8eef4" stroke-width="1.4" stroke-linecap="round"/><circle cx="539.0" cy="153.5" r="1.4" fill="#e8eef4"/><line x1="17.0" y1="172.5" x2="5.0" y2="178.8" stroke="#e8eef4" stroke-width="1.4" stroke-linecap="round"/><circle cx="5.0" cy="178.8" r="1.4" fill="#e8eef4"/><line x1="51.0" y1="172.5" x2="39.0" y2="178.8" stroke="#e8eef4" stroke-width="1.4" stroke-linecap="round"/><circle cx="39.0" cy="178.8" r="1.4" fill="#e8eef4"/><line x1="85.0" y1="172.5" x2="73.0" y2="178.8" stroke="#e8eef4" stroke-width="1.4" stroke-linecap="round"/><circle cx="73.0" cy="178.8" r="1.4" fill="#e8eef4"/><line x1="119.0" y1="172.5" x2="107.0" y2="178.8" stroke="#e8eef4" stroke-width="1.4" stroke-linecap="round"/><circle cx="107.0" cy="178.8" r="1.4" fill="#e8eef4"/><line x1="153.0" y1="172.5" x2="141.0" y2="178.8" stroke="#e8eef4" stroke-width="1.4" stroke-linecap="round"/><circle cx="141.0" cy="178.8" r="1.4" fill="#e8eef4"/><line x1="187.0" y1="172.5" x2="177.1" y2="178.8" stroke="#e8eef4" stroke-width="1.4" stroke-linecap="round"/><circle cx="177.1" cy="178.8" r="1.4" fill="#e8eef4"/><line x1="221.0" y1="172.5" x2="213.5" y2="178.8" stroke="#e8eef4" stroke-width="1.4" stroke-linecap="round"/><circle cx="213.5" cy="178.8" r="1.4" fill="#e8eef4"/><line x1="255.0" y1="172.5" x2="255.0" y2="178.8" stroke="#e8eef4" stroke-width="1.4" stroke-linecap="round"/><circle cx="255.0" cy="178.8" r="1.4" fill="#e8eef4"/><line x1="289.0" y1="172.5" x2="289.0" y2="178.8" stroke="#e8eef4" stroke-width="1.4" stroke-linecap="round"/><circle cx="289.0" cy="178.8" r="1.4" fill="#e8eef4"/><line x1="323.0" y1="172.5" x2="330.5" y2="178.8" stroke="#e8eef4" stroke-width="1.4" stroke-linecap="round"/><circle cx="330.5" cy="178.8" r="1.4" fill="#e8eef4"/><line x1="357.0" y1="172.5" x2="366.9" y2="178.8" stroke="#e8eef4" stroke-width="1.4" stroke-linecap="round"/><circle cx="366.9" cy="178.8" r="1.4" fill="#e8eef4"/><line x1="391.0" y1="172.5" x2="403.0" y2="178.8" stroke="#e8eef4" stroke-width="1.4" stroke-linecap="round"/><circle cx="403.0" cy="178.8" r="1.4" fill="#e8eef4"/><line x1="425.0" y1="172.5" x2="437.0" y2="178.8" stroke="#e8eef4" stroke-width="1.4" stroke-linecap="round"/><circle cx="437.0" cy="178.8" r="1.4" fill="#e8eef4"/><line x1="459.0" y1="172.5" x2="471.0" y2="178.8" stroke="#e8eef4" stroke-width="1.4" stroke-linecap="round"/><circle cx="471.0" cy="178.8" r="1.4" fill="#e8eef4"/><line x1="493.0" y1="172.5" x2="505.0" y2="178.8" stroke="#e8eef4" stroke-width="1.4" stroke-linecap="round"/><circle cx="505.0" cy="178.8" r="1.4" fill="#e8eef4"/><line x1="527.0" y1="172.5" x2="539.0" y2="178.8" stroke="#e8eef4" stroke-width="1.4" stroke-linecap="round"/><circle cx="539.0" cy="178.8" r="1.4" fill="#e8eef4"/><line x1="17.0" y1="195.5" x2="5.0" y2="203.2" stroke="#e8eef4" stroke-width="1.4" stroke-linecap="round"/><circle cx="5.0" cy="203.2" r="1.4" fill="#e8eef4"/><line x1="51.0" y1="195.5" x2="39.0" y2="203.2" stroke="#e8eef4" stroke-width="1.4" stroke-linecap="round"/><circle cx="39.0" cy="203.2" r="1.4" fill="#e8eef4"/><line x1="85.0" y1="195.5" x2="73.0" y2="203.2" stroke="#e8eef4" stroke-width="1.4" stroke-linecap="round"/><circle cx="73.0" cy="203.2" r="1.4" fill="#e8eef4"/><line x1="119.0" y1="195.5" x2="107.0" y2="203.2" stroke="#e8eef4" stroke-width="1.4" stroke-linecap="round"/><circle cx="107.0" cy="203.2" r="1.4" fill="#e8eef4"/><line x1="153.0" y1="195.5" x2="141.0" y2="203.2" stroke="#e8eef4" stroke-width="1.4" stroke-linecap="round"/><circle cx="141.0" cy="203.2" r="1.4" fill="#e8eef4"/><line x1="187.0" y1="195.5" x2="177.1" y2="203.2" stroke="#e8eef4" stroke-width="1.4" stroke-linecap="round"/><circle cx="177.1" cy="203.2" r="1.4" fill="#e8eef4"/><line x1="221.0" y1="195.5" x2="213.5" y2="203.2" stroke="#e8eef4" stroke-width="1.4" stroke-linecap="round"/><circle cx="213.5" cy="203.2" r="1.4" fill="#e8eef4"/><line x1="255.0" y1="195.5" x2="255.0" y2="203.2" stroke="#e8eef4" stroke-width="1.4" stroke-linecap="round"/><circle cx="255.0" cy="203.2" r="1.4" fill="#e8eef4"/><line x1="289.0" y1="195.5" x2="289.0" y2="203.2" stroke="#e8eef4" stroke-width="1.4" stroke-linecap="round"/><circle cx="289.0" cy="203.2" r="1.4" fill="#e8eef4"/><line x1="323.0" y1="195.5" x2="330.5" y2="203.2" stroke="#e8eef4" stroke-width="1.4" stroke-linecap="round"/><circle cx="330.5" cy="203.2" r="1.4" fill="#e8eef4"/><line x1="357.0" y1="195.5" x2="366.9" y2="203.2" stroke="#e8eef4" stroke-width="1.4" stroke-linecap="round"/><circle cx="366.9" cy="203.2" r="1.4" fill="#e8eef4"/><line x1="391.0" y1="195.5" x2="403.0" y2="203.2" stroke="#e8eef4" stroke-width="1.4" stroke-linecap="round"/><circle cx="403.0" cy="203.2" r="1.4" fill="#e8eef4"/><line x1="425.0" y1="195.5" x2="437.0" y2="203.2" stroke="#e8eef4" stroke-width="1.4" stroke-linecap="round"/><circle cx="437.0" cy="203.2" r="1.4" fill="#e8eef4"/><line x1="459.0" y1="195.5" x2="471.0" y2="203.2" stroke="#e8eef4" stroke-width="1.4" stroke-linecap="round"/><circle cx="471.0" cy="203.2" r="1.4" fill="#e8eef4"/><line x1="493.0" y1="195.5" x2="505.0" y2="203.2" stroke="#e8eef4" stroke-width="1.4" stroke-linecap="round"/><circle cx="505.0" cy="203.2" r="1.4" fill="#e8eef4"/><line x1="527.0" y1="195.5" x2="539.0" y2="203.2" stroke="#e8eef4" stroke-width="1.4" stroke-linecap="round"/><circle cx="539.0" cy="203.2" r="1.4" fill="#e8eef4"/><line x1="17.0" y1="218.5" x2="5.0" y2="227.3" stroke="#e8eef4" stroke-width="1.4" stroke-linecap="round"/><circle cx="5.0" cy="227.3" r="1.4" fill="#e8eef4"/><line x1="51.0" y1="218.5" x2="39.0" y2="227.3" stroke="#e8eef4" stroke-width="1.4" stroke-linecap="round"/><circle cx="39.0" cy="227.3" r="1.4" fill="#e8eef4"/><line x1="85.0" y1="218.5" x2="73.0" y2="227.3" stroke="#e8eef4" stroke-width="1.4" stroke-linecap="round"/><circle cx="73.0" cy="227.3" r="1.4" fill="#e8eef4"/><line x1="119.0" y1="218.5" x2="107.0" y2="227.3" stroke="#e8eef4" stroke-width="1.4" stroke-linecap="round"/><circle cx="107.0" cy="227.3" r="1.4" fill="#e8eef4"/><line x1="153.0" y1="218.5" x2="141.0" y2="227.3" stroke="#e8eef4" stroke-width="1.4" stroke-linecap="round"/><circle cx="141.0" cy="227.3" r="1.4" fill="#e8eef4"/><line x1="187.0" y1="218.5" x2="177.1" y2="227.3" stroke="#e8eef4" stroke-width="1.4" stroke-linecap="round"/><circle cx="177.1" cy="227.3" r="1.4" fill="#e8eef4"/><line x1="221.0" y1="218.5" x2="213.5" y2="227.3" stroke="#e8eef4" stroke-width="1.4" stroke-linecap="round"/><circle cx="213.5" cy="227.3" r="1.4" fill="#e8eef4"/><line x1="255.0" y1="218.5" x2="255.0" y2="227.3" stroke="#e8eef4" stroke-width="1.4" stroke-linecap="round"/><circle cx="255.0" cy="227.3" r="1.4" fill="#e8eef4"/><line x1="289.0" y1="218.5" x2="289.0" y2="227.3" stroke="#e8eef4" stroke-width="1.4" stroke-linecap="round"/><circle cx="289.0" cy="227.3" r="1.4" fill="#e8eef4"/><line x1="323.0" y1="218.5" x2="330.5" y2="227.3" stroke="#e8eef4" stroke-width="1.4" stroke-linecap="round"/><circle cx="330.5" cy="227.3" r="1.4" fill="#e8eef4"/><line x1="357.0" y1="218.5" x2="366.9" y2="227.3" stroke="#e8eef4" stroke-width="1.4" stroke-linecap="round"/><circle cx="366.9" cy="227.3" r="1.4" fill="#e8eef4"/><line x1="391.0" y1="218.5" x2="403.0" y2="227.3" stroke="#e8eef4" stroke-width="1.4" stroke-linecap="round"/><circle cx="403.0" cy="227.3" r="1.4" fill="#e8eef4"/><line x1="425.0" y1="218.5" x2="437.0" y2="227.3" stroke="#e8eef4" stroke-width="1.4" stroke-linecap="round"/><circle cx="437.0" cy="227.3" r="1.4" fill="#e8eef4"/><line x1="459.0" y1="218.5" x2="471.0" y2="227.3" stroke="#e8eef4" stroke-width="1.4" stroke-linecap="round"/><circle cx="471.0" cy="227.3" r="1.4" fill="#e8eef4"/><line x1="493.0" y1="218.5" x2="505.0" y2="227.3" stroke="#e8eef4" stroke-width="1.4" stroke-linecap="round"/><circle cx="505.0" cy="227.3" r="1.4" fill="#e8eef4"/><line x1="527.0" y1="218.5" x2="539.0" y2="227.3" stroke="#e8eef4" stroke-width="1.4" stroke-linecap="round"/><circle cx="539.0" cy="227.3" r="1.4" fill="#e8eef4"/><line x1="17.0" y1="241.5" x2="5.0" y2="251.2" stroke="#e8eef4" stroke-width="1.4" stroke-linecap="round"/><circle cx="5.0" cy="251.2" r="1.4" fill="#e8eef4"/><line x1="51.0" y1="241.5" x2="39.0" y2="251.2" stroke="#e8eef4" stroke-width="1.4" stroke-linecap="round"/><circle cx="39.0" cy="251.2" r="1.4" fill="#e8eef4"/><line x1="85.0" y1="241.5" x2="73.0" y2="251.2" stroke="#e8eef4" stroke-width="1.4" stroke-linecap="round"/><circle cx="73.0" cy="251.2" r="1.4" fill="#e8eef4"/><line x1="119.0" y1="241.5" x2="107.0" y2="251.2" stroke="#e8eef4" stroke-width="1.4" stroke-linecap="round"/><circle cx="107.0" cy="251.2" r="1.4" fill="#e8eef4"/><line x1="153.0" y1="241.5" x2="141.0" y2="251.2" stroke="#e8eef4" stroke-width="1.4" stroke-linecap="round"/><circle cx="141.0" cy="251.2" r="1.4" fill="#e8eef4"/><line x1="187.0" y1="241.5" x2="177.1" y2="251.2" stroke="#e8eef4" stroke-width="1.4" stroke-linecap="round"/><circle cx="177.1" cy="251.2" r="1.4" fill="#e8eef4"/><line x1="221.0" y1="241.5" x2="213.5" y2="251.2" stroke="#e8eef4" stroke-width="1.4" stroke-linecap="round"/><circle cx="213.5" cy="251.2" r="1.4" fill="#e8eef4"/><line x1="255.0" y1="241.5" x2="255.0" y2="251.2" stroke="#e8eef4" stroke-width="1.4" stroke-linecap="round"/><circle cx="255.0" cy="251.2" r="1.4" fill="#e8eef4"/><line x1="289.0" y1="241.5" x2="289.0" y2="251.2" stroke="#e8eef4" stroke-width="1.4" stroke-linecap="round"/><circle cx="289.0" cy="251.2" r="1.4" fill="#e8eef4"/><line x1="323.0" y1="241.5" x2="330.5" y2="251.2" stroke="#e8eef4" stroke-width="1.4" stroke-linecap="round"/><circle cx="330.5" cy="251.2" r="1.4" fill="#e8eef4"/><line x1="357.0" y1="241.5" x2="366.9" y2="251.2" stroke="#e8eef4" stroke-width="1.4" stroke-linecap="round"/><circle cx="366.9" cy="251.2" r="1.4" fill="#e8eef4"/><line x1="391.0" y1="241.5" x2="403.0" y2="251.2" stroke="#e8eef4" stroke-width="1.4" stroke-linecap="round"/><circle cx="403.0" cy="251.2" r="1.4" fill="#e8eef4"/><line x1="425.0" y1="241.5" x2="437.0" y2="251.2" stroke="#e8eef4" stroke-width="1.4" stroke-linecap="round"/><circle cx="437.0" cy="251.2" r="1.4" fill="#e8eef4"/><line x1="459.0" y1="241.5" x2="471.0" y2="251.2" stroke="#e8eef4" stroke-width="1.4" stroke-linecap="round"/><circle cx="471.0" cy="251.2" r="1.4" fill="#e8eef4"/><line x1="493.0" y1="241.5" x2="505.0" y2="251.2" stroke="#e8eef4" stroke-width="1.4" stroke-linecap="round"/><circle cx="505.0" cy="251.2" r="1.4" fill="#e8eef4"/><line x1="527.0" y1="241.5" x2="539.0" y2="251.2" stroke="#e8eef4" stroke-width="1.4" stroke-linecap="round"/><circle cx="539.0" cy="251.2" r="1.4" fill="#e8eef4"/><line x1="17.0" y1="264.5" x2="5.0" y2="274.5" stroke="#e8eef4" stroke-width="1.4" stroke-linecap="round"/><circle cx="5.0" cy="274.5" r="1.4" fill="#e8eef4"/><line x1="51.0" y1="264.5" x2="39.0" y2="274.5" stroke="#e8eef4" stroke-width="1.4" stroke-linecap="round"/><circle cx="39.0" cy="274.5" r="1.4" fill="#e8eef4"/><line x1="85.0" y1="264.5" x2="73.0" y2="274.5" stroke="#e8eef4" stroke-width="1.4" stroke-linecap="round"/><circle cx="73.0" cy="274.5" r="1.4" fill="#e8eef4"/><line x1="119.0" y1="264.5" x2="107.0" y2="274.5" stroke="#e8eef4" stroke-width="1.4" stroke-linecap="round"/><circle cx="107.0" cy="274.5" r="1.4" fill="#e8eef4"/><line x1="153.0" y1="264.5" x2="141.0" y2="274.5" stroke="#e8eef4" stroke-width="1.4" stroke-linecap="round"/><circle cx="141.0" cy="274.5" r="1.4" fill="#e8eef4"/><line x1="187.0" y1="264.5" x2="177.1" y2="274.5" stroke="#e8eef4" stroke-width="1.4" stroke-linecap="round"/><circle cx="177.1" cy="274.5" r="1.4" fill="#e8eef4"/><line x1="221.0" y1="264.5" x2="213.5" y2="274.5" stroke="#e8eef4" stroke-width="1.4" stroke-linecap="round"/><circle cx="213.5" cy="274.5" r="1.4" fill="#e8eef4"/><line x1="255.0" y1="264.5" x2="255.0" y2="274.5" stroke="#e8eef4" stroke-width="1.4" stroke-linecap="round"/><circle cx="255.0" cy="274.5" r="1.4" fill="#e8eef4"/><line x1="289.0" y1="264.5" x2="289.0" y2="274.5" stroke="#e8eef4" stroke-width="1.4" stroke-linecap="round"/><circle cx="289.0" cy="274.5" r="1.4" fill="#e8eef4"/><line x1="323.0" y1="264.5" x2="330.5" y2="274.5" stroke="#e8eef4" stroke-width="1.4" stroke-linecap="round"/><circle cx="330.5" cy="274.5" r="1.4" fill="#e8eef4"/><line x1="357.0" y1="264.5" x2="366.9" y2="274.5" stroke="#e8eef4" stroke-width="1.4" stroke-linecap="round"/><circle cx="366.9" cy="274.5" r="1.4" fill="#e8eef4"/><line x1="391.0" y1="264.5" x2="403.0" y2="274.5" stroke="#e8eef4" stroke-width="1.4" stroke-linecap="round"/><circle cx="403.0" cy="274.5" r="1.4" fill="#e8eef4"/><line x1="425.0" y1="264.5" x2="437.0" y2="274.5" stroke="#e8eef4" stroke-width="1.4" stroke-linecap="round"/><circle cx="437.0" cy="274.5" r="1.4" fill="#e8eef4"/><line x1="459.0" y1="264.5" x2="471.0" y2="274.5" stroke="#e8eef4" stroke-width="1.4" stroke-linecap="round"/><circle cx="471.0" cy="274.5" r="1.4" fill="#e8eef4"/><line x1="493.0" y1="264.5" x2="505.0" y2="274.5" stroke="#e8eef4" stroke-width="1.4" stroke-linecap="round"/><circle cx="505.0" cy="274.5" r="1.4" fill="#e8eef4"/><line x1="527.0" y1="264.5" x2="539.0" y2="274.5" stroke="#e8eef4" stroke-width="1.4" stroke-linecap="round"/><circle cx="539.0" cy="274.5" r="1.4" fill="#e8eef4"/>
    <rect x="0" y="0" width="544" height="276" fill="none" stroke="#2a3340"/>
    <rect x="250.24" y="0" width="43.52" height="276" fill="none" stroke="#c5ced6" stroke-width="1.2"/>
    <rect x="0" y="129.72" width="544" height="16.56" fill="none" stroke="#c5ced6" stroke-width="1.2"/>
    <line x1="272.0" y1="0" x2="272.0" y2="276" stroke="#e8eef4" stroke-width="1.2" stroke-dasharray="6 4"/>
    <line x1="0" y1="138.0" x2="544" y2="138.0" stroke="#e8eef4" stroke-width="1.2" stroke-dasharray="6 4"/>
    <text x="272.0" y="294" fill="#c5ced6" font-size="11" text-anchor="middle" font-family="ui-sans-serif,system-ui,sans-serif">x center</text>
    <text x="8" y="132.0" fill="#c5ced6" font-size="11" font-family="ui-sans-serif,system-ui,sans-serif">y mid</text>
    <text x="8" y="14" fill="#6b7680" font-size="11" font-family="ui-sans-serif,system-ui,sans-serif">top</text>
    <text x="8" y="270" fill="#6b7680" font-size="11" font-family="ui-sans-serif,system-ui,sans-serif">bottom</text>
  </g>
  <g font-family="ui-sans-serif,system-ui,sans-serif" font-size="12" transform="translate(48,370)">
    <rect x="0" y="0" width="14" height="14" fill="#5ec8a0"/>
    <text x="20" y="12" fill="#c5ced6">approach</text>
    <rect x="110" y="0" width="14" height="14" fill="#dc6050"/>
    <text x="130" y="12" fill="#c5ced6">retreat</text>
    <rect x="210" y="0" width="14" height="14" fill="#f0a050"/>
    <text x="230" y="12" fill="#c5ced6">|spin| lift</text>
    <circle cx="360" cy="7" r="2" fill="#6b7680"/>
    <text x="370" y="12" fill="#c5ced6">hold (in band)</text>
  </g>
</svg>
